<?xml version="1.0" encoding="UTF-8"?>
<svg version="1.1" xmlns="http://www.w3.org/2000/svg" width="1080" height="1080">
<path d="M0 0 C356.4 0 712.8 0 1080 0 C1080 356.4 1080 712.8 1080 1080 C723.6 1080 367.2 1080 0 1080 C0 723.6 0 367.2 0 0 Z " fill="#FEFEFE" transform="translate(0,0)"/>
<path d="M0 0 C3.70057864 3.71462258 4.92932867 7.28495007 6.1875 12.3125 C6.35475586 12.98039551 6.52201172 13.64829102 6.69433594 14.33642578 C8.55822924 21.96871541 9.16334712 29.15933844 9 37 C8.06607422 37.20302734 8.06607422 37.20302734 7.11328125 37.41015625 C-13.76207145 42.27233742 -32.52021072 50.75983106 -51.51251221 60.4576416 C-54.08798328 61.76860938 -56.67020395 63.06594987 -59.25270653 64.36299706 C-77.87738297 73.71717954 -77.87738297 73.71717954 -96 84 C-89.29397049 82.75722749 -89.29397049 82.75722749 -82.75 80.875 C-72.51156063 78.48603081 -61.50857715 80.22598074 -51.1875 81.4375 C-38.60373042 82.81424862 -26.09599723 83.45424901 -13.44213867 83.70874023 C-6.1859474 83.8577687 1.0126755 84.18074769 8.24951172 84.72460938 C14.95525606 85.21699836 21.64841737 85.64227745 28.36987305 85.84448242 C30.00846499 85.90688158 31.64623886 85.99610488 33.28198242 86.11108398 C42.43576311 87.02514094 42.43576311 87.02514094 50.57745361 83.68319702 C53.79355597 79.86080367 55.83683116 75.47159018 58 71 C67.55293209 57.17737422 80.87125528 45.25409161 94.2734375 35.29101562 C95.92869942 34.05331412 97.55859545 32.78770269 99.1875 31.515625 C113.81109411 20.33522865 131.30303346 11.16859984 149 6 C149.78665039 5.76168457 150.57330078 5.52336914 151.38378906 5.27783203 C165.16868318 1.28110615 178.74544954 0.52398022 193 0.5 C194.23509811 0.49326263 194.23509811 0.49326263 195.49514771 0.48638916 C210.19961552 0.45376592 224.11001013 2.08918528 238 7.1875 C238.83611816 7.48938232 239.67223633 7.79126465 240.53369141 8.10229492 C254.34915237 13.22628363 266.36148372 19.99098162 278 29 C278.74636719 29.56074219 279.49273438 30.12148438 280.26171875 30.69921875 C295.27170711 42.78636962 304.64993329 61.20723882 311 79 C311.25652344 79.71285156 311.51304687 80.42570312 311.77734375 81.16015625 C315.15387325 92.37417759 314.24377388 104.71965736 312 116 C311.6614027 117.99911555 311.32659099 119.99888795 311 122 C311.6084375 121.52691406 312.216875 121.05382812 312.84375 120.56640625 C320.82639931 114.54420169 329.17717072 109.67377345 338 105 C338.84127441 104.55140625 339.68254883 104.1028125 340.54931641 103.640625 C377.02269293 84.3541764 416.09129949 71.64139981 455.79150391 60.87866211 C458.09975969 60.24653515 460.40055439 59.58692943 462.69604492 58.90991211 C466.14103944 57.96115761 469.120478 57.66721328 472.6875 57.625 C473.78449219 57.59664063 474.88148438 57.56828125 476.01171875 57.5390625 C479.72295625 58.11151482 480.78676886 59.0053319 483 62 C487.1183839 71.95788345 486.97919138 84.40692957 486 95 C484.49184888 96.50815112 482.94843752 96.42863346 480.85546875 96.76171875 C479.96561279 96.90770508 479.07575684 97.05369141 478.15893555 97.20410156 C477.17836182 97.36362305 476.19778809 97.52314453 475.1875 97.6875 C445.10212111 102.79852962 416.09189618 109.92355093 388 122 C387.22720703 122.33 386.45441406 122.66 385.65820312 123 C369.94002639 129.74577241 354.70450035 137.25441517 340 146 C338.92878906 146.63292969 337.85757813 147.26585937 336.75390625 147.91796875 C335.76261719 148.52253906 334.77132812 149.12710938 333.75 149.75 C332.87859375 150.28109375 332.0071875 150.8121875 331.109375 151.359375 C328.882747 153.09119678 328.01731766 154.40018821 327 157 C332.05093674 159.07532702 336.78752491 160.47557101 342.17411804 161.35099792 C350.96684906 162.78696152 359.57967827 164.56092902 368.19921875 166.8125 C379.63666948 169.73189697 391.13143024 172.23018208 402.7019043 174.56030273 C405.83077956 175.19118575 408.9574274 175.83234633 412.08398438 176.47460938 C422.0307461 178.50268476 431.96970077 180.38271569 442.00746155 181.89959717 C448.67350051 182.91642441 455.28457707 184.16208051 461.90391541 185.44488525 C472.16587374 187.4305513 482.45726338 189.24443718 492.75 191.0625 C494.678407 191.40417508 496.60679246 191.74597175 498.53515625 192.08789062 C502.27905786 192.75152282 506.02321162 193.4137032 509.76757812 194.07470703 C513.084666 194.66047287 516.40108822 195.24974038 519.71679688 195.84326172 C526.90339985 197.12690703 534.09336742 198.33765735 541.31298828 199.42333984 C546.02772996 200.16074018 550.73000421 200.96445893 555.43359375 201.76953125 C576.74177489 205.40527815 598.03337451 208.85370606 619.48413086 211.5402832 C620.2307196 211.63381073 620.97730835 211.72733826 621.746521 211.82369995 C623.73253236 212.07066994 625.71914863 212.31276225 627.70581055 212.55444336 C629.71422901 212.82609264 631.71763319 213.14920701 633.7019043 213.56176758 C637.82032821 214.34712516 642.11931512 213.88009848 646.29296875 213.609375 C648.3828125 213.546875 648.3828125 213.546875 652 214 C654.69596889 217.46630099 655.382626 220.11903425 655.3984375 224.45703125 C655.40230469 225.48763672 655.40617188 226.51824219 655.41015625 227.58007812 C655.39275391 229.18012695 655.39275391 229.18012695 655.375 230.8125 C655.39240234 232.39514648 655.39240234 232.39514648 655.41015625 234.00976562 C655.35919911 247.64080089 655.35919911 247.64080089 651 252 C642.30959873 252.51176807 633.8156883 250.97391868 625.25 249.6875 C623.78264018 249.47140618 622.31519245 249.25590835 620.84765625 249.04101562 C617.82663057 248.59811465 614.80614809 248.15170721 611.78588867 247.70361328 C607.63453258 247.09012611 603.48049843 246.49691948 599.32554626 245.90834045 C587.76661255 244.27076179 576.22341632 242.54235014 564.6875 240.75 C563.72566803 240.60071045 562.76383606 240.4514209 561.77285767 240.29760742 C543.95062554 237.52361684 526.18167483 234.48961676 508.42576599 231.32150269 C499.89363335 229.79939896 491.3555969 228.31155827 482.81756592 226.82296753 C467.39224019 224.1316851 451.97149691 221.41540635 436.56103516 218.64013672 C434.04015983 218.1869806 431.51905181 217.73533231 428.99755859 217.28564453 C412.20830847 214.29052454 395.4572578 211.19543405 378.78564453 207.59130859 C376.00600507 207.00127469 373.22141738 206.44447016 370.43359375 205.89453125 C350.00864356 201.78820038 329.52868179 196.20469771 310.67578125 187.21484375 C308.18625847 185.86219923 308.18625847 185.86219923 306 186 C306.474375 187.051875 306.94875 188.10375 307.4375 189.1875 C309.66777616 194.43706512 310.53137605 199.26113861 310 205 C304.3419901 211.07712175 293.79707291 211.90751582 285.96826172 212.18945312 C281.29107909 212.29492222 276.61547911 212.28013404 271.9375 212.25 C271.10051575 212.24723053 270.26353149 212.24446106 269.40118408 212.24160767 C254.86895284 212.18536704 240.45157963 211.61627821 226 210 C225.16581543 209.90879883 224.33163086 209.81759766 223.47216797 209.72363281 C208.2362227 207.96670609 193.33445272 204.29249317 178.42431641 200.79736328 C175.63395439 200.14761835 172.84146125 199.51576947 170.04296875 198.90234375 C134.59964015 191.0665436 93.95135509 178.14575299 65.30078125 155.046875 C62.19493061 152.75331138 62.19493061 152.75331138 58.81640625 152.8359375 C53.22959663 154.54000021 48.15964902 157.02677707 42.9375 159.625 C41.69969247 160.23273012 40.46156233 160.8398035 39.22314453 161.44628906 C35.63912644 163.20640473 32.06304182 164.98215393 28.48858643 166.76159668 C25.80964199 168.09472847 23.12926125 169.42494375 20.44873047 170.75488281 C14.42098485 173.74690743 8.39710506 176.74664044 2.375 179.75 C1.40666229 180.23269348 0.43832458 180.71538696 -0.55935669 181.21270752 C-13.45912765 187.64927624 -26.27414769 194.22601225 -39 201 C-39.77149887 201.41041534 -40.54299774 201.82083069 -41.33787537 202.24368286 C-45.42180774 204.41621141 -45.42180774 204.41621141 -49.50094604 206.59771729 C-54.03704861 209.01240112 -58.62332105 211.32213504 -63.22167969 213.61547852 C-64.66199469 214.33471211 -66.10227579 215.05401362 -67.54252625 215.77337646 C-68.28134726 216.14232277 -69.02016827 216.51126907 -69.78137779 216.89139557 C-73.29389832 218.64653703 -76.80433795 220.40582422 -80.31469727 222.1652832 C-87.24710738 225.63947107 -94.18039929 229.11189357 -101.1143198 232.58306599 C-105.27310997 234.66508732 -109.43151367 236.7478736 -113.58911133 238.83227539 C-117.65911701 240.87272099 -121.73010449 242.91119523 -125.80177116 244.9483242 C-127.33981325 245.71826359 -128.87750524 246.48890276 -130.41482735 247.2602787 C-132.55890125 248.33596135 -134.70422718 249.40910749 -136.84985352 250.48168945 C-137.47280304 250.79496185 -138.09575256 251.10823425 -138.73757935 251.43099976 C-142.76977293 253.44241756 -146.84664798 255.25858912 -151 257 C-150.26064209 256.85900879 -149.52128418 256.71801758 -148.75952148 256.57275391 C-141.5883896 255.21048988 -134.41194695 253.88134023 -127.22851562 252.58544922 C-125.39518855 252.25299926 -123.56256448 251.91645019 -121.73242188 251.56689453 C-90.92371915 245.70925283 -51.86614917 248.4822601 -25 266 C-18.49815898 270.54939314 -13.28826073 275.30578441 -9 282 C-8.38125 282.886875 -7.7625 283.77375 -7.125 284.6875 C-4.41447525 292.66848953 -5.22535581 301.06203687 -8.734375 308.6484375 C-12.97151672 316.52115144 -16.85061993 322.49562746 -25.79296875 325.34375 C-27.25332252 325.74584464 -28.7186388 326.13018926 -30.1875 326.5 C-31.00428223 326.70939209 -31.82106445 326.91878418 -32.66259766 327.13452148 C-43.09147221 329.67563075 -53.70882344 331.07087994 -64.33544922 332.50292969 C-68.14404549 333.01953875 -71.94901877 333.55834691 -75.75390625 334.1015625 C-78.31502432 334.46410621 -80.87622036 334.82609952 -83.4375 335.1875 C-84.61489746 335.35451416 -85.79229492 335.52152832 -87.00537109 335.69360352 C-98.5539621 337.29158901 -109.96476099 338.1925604 -121.625 338.25 C-123.20667969 338.2809375 -123.20667969 338.2809375 -124.8203125 338.3125 C-132.90136493 338.35250521 -140.9586015 337.65493257 -147.5625 332.5625 C-152.31063267 327.57087335 -151.18341389 321.22935619 -151.1875 314.6875 C-151.19974609 313.66720703 -151.21199219 312.64691406 -151.22460938 311.59570312 C-151.22654297 310.59861328 -151.22847656 309.60152344 -151.23046875 308.57421875 C-151.23457764 307.67276123 -151.23868652 306.77130371 -151.24291992 305.8425293 C-150.94814532 302.39322205 -149.98189973 299.31249861 -149 296 C-137.39290984 295.13636926 -125.79123505 294.64532603 -114.16015625 294.24609375 C-112.29828685 294.18046673 -110.43642478 294.11463143 -108.5745697 294.04859924 C-103.72672477 293.87721586 -98.87878697 293.70861986 -94.03082275 293.54064941 C-89.06280577 293.36801049 -84.09488405 293.19267311 -79.12695312 293.01757812 C-69.41805897 292.6757781 -59.70906432 292.33692939 -50 292 C-55.20850781 291.29394626 -60.41773562 290.59354875 -65.62767029 289.89810181 C-67.39534908 289.66136764 -69.16283135 289.42316069 -70.93009949 289.18338013 C-101.53422359 285.03431019 -128.20680685 289.4582608 -158.1953125 296.65625 C-164.3333534 298.11415988 -170.49537549 299.2153934 -176.73046875 300.1640625 C-181.4983424 301.38308874 -185.75945934 302.94385526 -188.4140625 307.34375 C-190.76969707 318.02262673 -189.44987849 329.80898336 -183.66357422 339.15966797 C-180.01081448 344.61857227 -176.03985161 349.82425812 -172 355 C-171.236875 355.99644531 -170.47375 356.99289062 -169.6875 358.01953125 C-149.55830498 383.78977085 -127.62761542 401.0174141 -94.76855469 405.57446289 C-88.86080209 406.24155364 -83.00389543 406.38314169 -77.0625 406.375 C-75.81122314 406.37338867 -74.55994629 406.37177734 -73.27075195 406.37011719 C-61.54710902 406.21810402 -50.41364273 404.58468869 -39 402 C-38.25476074 401.8345166 -37.50952148 401.6690332 -36.74169922 401.49853516 C-32.12518158 400.45575279 -27.5616737 399.26402206 -23 398 C-21.97664551 397.71987061 -21.97664551 397.71987061 -20.93261719 397.43408203 C-12.11577485 395.00429138 -3.51747725 392.21661632 5 388.87939453 C9.81401781 387 9.81401781 387 12 387 C12.061875 385.72125 12.12375 384.4425 12.1875 383.125 C13.66919244 370.79039149 22.39780216 361.48051296 31.62109375 353.82421875 C53.28231269 338.04295627 81.91122981 339.02254137 107.25048828 342.81811523 C122.33683808 345.44732898 136.68442983 350.68961918 151 356 C151.94930389 356.3515213 151.94930389 356.3515213 152.91778564 356.71014404 C192.61171496 371.46188736 230.49362552 389.26443201 265 414 C260.48479195 404.65293295 255.89832028 395.57222547 250 387 C249.41992188 386.15695312 248.83984375 385.31390625 248.2421875 384.4453125 C243.72241544 378.07224478 238.81793555 372.04110428 233.87329102 365.99804688 C217.32639738 345.73832153 217.32639738 345.73832153 217.5625 334.7890625 C218.42647592 329.28121598 221.52497118 325.95198351 225.79296875 322.5859375 C230.63289481 319.65204417 235.00582488 319.64957478 240.52734375 320.37109375 C243.71790688 321.18259559 245.53195738 322.87474108 248 325 C255.05151131 325.65789396 261.63841008 323.57549409 268.40820312 321.77734375 C282.84714966 318.31832165 297.92138772 319.60663949 312.48452759 321.67919922 C316.71307894 322.27798055 320.94853629 322.82446072 325.18359375 323.375 C326.14452438 323.50052246 327.10545502 323.62604492 328.09550476 323.75537109 C342.51682045 325.61422229 356.97731317 327.15109305 371.43050766 328.73820877 C375.40996079 329.17556783 379.38918612 329.61498782 383.3684082 330.05444336 C384.14936828 330.14069064 384.93032835 330.22693792 385.73495388 330.31579876 C387.29734002 330.48836586 388.85972401 330.66095248 390.42210579 330.83355904 C391.96598751 331.00410186 393.50987559 331.17458725 395.05377007 331.34501457 C432.23837086 335.44999853 469.36737962 339.9811449 506.49536133 344.56713867 C516.28823801 345.77666639 526.08138414 346.98397171 535.875 348.1875 C536.88614868 348.31194489 537.89729736 348.43638977 538.93908691 348.56460571 C551.18444545 350.07027366 563.43421329 351.51593214 575.69595337 352.88146973 C635.78084369 359.59655767 635.78084369 359.59655767 645.7421875 369.78125 C646.11601563 370.3484375 646.48984375 370.915625 646.875 371.5 C647.26429688 372.0671875 647.65359375 372.634375 648.0546875 373.21875 C650.77077459 378.33666617 650.77392453 384.37563755 650 390 C640.02933297 413.88230916 608.68794141 426.10430221 586.75195312 435.40380859 C583.26150046 436.88542936 579.77932664 438.38590066 576.29760742 439.88790894 C558.82367453 447.42253445 541.30250721 454.79921787 523.5625 461.6875 C522.84285065 461.96750854 522.12320129 462.24751709 521.38174438 462.53601074 C512.97431007 465.79925146 504.52221491 468.89873831 496.00839233 471.87298584 C490.17534127 473.91778766 484.42426319 476.13636609 478.6875 478.4375 C470.68391108 481.60762731 462.64448121 484.59947255 454.50439453 487.39941406 C448.15996906 489.58208864 441.85916221 491.87094491 435.5625 494.1875 C429.80803497 496.30203283 424.07567745 498.34450309 418.1875 500.0625 C412.27148542 501.80067029 406.6554569 504.10824411 400.99682617 506.53930664 C395.39966675 508.92590931 390.16990257 511 384 511 C384 511.66 384 512.32 384 513 C385.27351318 513.16254272 385.27351318 513.16254272 386.57275391 513.32836914 C390.28537562 514.05592451 393.36228871 515.2492238 396.8359375 516.74609375 C397.49498581 517.02835815 398.15403412 517.31062256 398.83305359 517.60144043 C401.01687896 518.53961154 403.19604605 519.48807482 405.375 520.4375 C406.92888528 521.10961778 408.48284192 521.78157058 410.03686523 522.45336914 C435.75884722 533.60345957 461.28586572 545.17671678 486.62524414 557.16943359 C496.21735592 561.70691535 505.83989416 566.17156887 515.5 570.5625 C516.17388763 570.8690451 516.84777527 571.17559021 517.54208374 571.49142456 C525.29933196 575.0159475 533.078604 578.48526618 540.890625 581.88671875 C585.42595728 601.28073984 585.42595728 601.28073984 600 615 C601.47392656 616.29764298 602.9524106 617.59014737 604.4375 618.875 C606.19001681 620.40983577 607.93998096 621.94627667 609.67578125 623.5 C612.33753754 625.82490872 614.41505498 627.5863525 618 628 C619.11109161 638.88869776 614.05522374 651.09775878 608 660 C606 662 606 662 602.9375 662.0625 C596.02238725 660.83123769 590.84060174 654.77435871 585.8125 650.25 C576.93906058 642.35066028 568.26126872 635.33992894 557.6953125 629.828125 C556.79279755 629.35728989 555.89028259 628.88645477 554.9604187 628.40135193 C543.35229735 622.48520081 531.24713532 617.80351727 519.125 613.0625 C516.66305931 612.09000235 514.20147384 611.11660498 511.74023438 610.14233398 C504.83297633 607.41240994 497.9177123 604.70330164 491 602 C489.3577081 601.35687118 487.71545088 600.71365376 486.07324219 600.0703125 C478.05801987 596.9333786 470.02762528 593.83679422 461.98864746 590.76123047 C454.86509502 588.03441977 447.74525107 585.29791647 440.625 582.5625 C439.79898285 582.24527985 438.9729657 581.92805969 438.12191772 581.60122681 C423.31476613 575.91294675 408.54796168 570.12667068 393.79891968 564.28961182 C389.33517143 562.52421804 384.86637356 560.77212395 380.39453125 559.02734375 C367.18042874 553.86756802 354.04138145 548.58197715 341 543 C341.30703857 544.03592285 341.61407715 545.0718457 341.93041992 546.13916016 C359.36435625 605.08572312 359.36435625 605.08572312 357 618 C354.29432071 622.81199924 352.17165869 624.99466296 347 627 C343.36188722 627.88601658 340.00097967 628.1176523 336.26171875 628.09765625 C335.29967529 628.09515869 334.33763184 628.09266113 333.34643555 628.09008789 C332.13898682 628.08098389 330.93153809 628.07187988 329.6875 628.0625 C327.60262232 628.05100441 325.51774259 628.03987905 323.43286133 628.02905273 C321.62190755 628.01936849 319.81095378 628.00968424 318 628 C315.44890174 613.77950831 312.91366647 599.55660117 310.4296875 585.32421875 C310.21910706 584.11855255 310.00852661 582.91288635 309.79156494 581.67068481 C308.93462045 576.76283043 308.07811262 571.85490238 307.22412109 566.9465332 C303.83750203 547.43072401 303.83750203 547.43072401 300 528 C299.23320923 529.41152344 299.23320923 529.41152344 298.45092773 530.8515625 C293.67649726 539.57436207 288.2466091 547.28013404 282 555 C281.30390625 555.88945313 280.6078125 556.77890625 279.890625 557.6953125 C273.70751847 565.48230757 266.93061257 572.69668763 260.04882812 579.86328125 C258.68282618 581.28788195 257.32213114 582.71759028 255.96679688 584.15234375 C245.52240906 595.18528828 234.4841301 604.36227151 222 613 C220.67142291 613.9316473 219.34326957 614.86389929 218.015625 615.796875 C214.04115732 618.57750741 210.03597132 621.30935245 206 624 C206.21438721 624.97030151 206.21438721 624.97030151 206.43310547 625.96020508 C207.92304124 633.28040919 208.24368002 640.23348171 208.125 647.6875 C208.11597656 648.78255859 208.10695313 649.87761719 208.09765625 651.00585938 C208.07438154 653.67081354 208.04169135 656.33528134 208 659 C206.98164062 658.95286865 205.96328125 658.9057373 204.9140625 658.85717773 C201.10539032 658.69324502 197.29702302 658.59060198 193.48583984 658.50561523 C191.84240149 658.46058289 190.19931918 658.39933043 188.55712891 658.32104492 C178.86352562 657.58498627 178.86352562 657.58498627 170.16015625 661.00830078 C168.19833321 663.24639321 166.6029133 665.50051671 165 668 C161.73952371 669.63023814 159.62198965 669.4673535 156 669 C148.08469604 664.46810048 142.81948637 655.45845911 140 647 C137.8852964 645.50904391 137.8852964 645.50904391 135.25 644.0625 C126.02526649 638.41445821 118.59551205 630.62108617 111 623 C110.43796875 622.46117187 109.8759375 621.92234375 109.296875 621.3671875 C104.57990262 616.81697677 100.45131445 611.87090101 96.38085938 606.74023438 C95.39835715 605.50203143 94.41229816 604.26664715 93.42382812 603.03320312 C83.46300547 590.58505366 74.08389276 577.76154319 66 564 C25.94400226 566.76597205 -12.18344602 573.21259888 -51.18969727 582.74853516 C-52.5178949 583.07087128 -52.5178949 583.07087128 -53.8729248 583.39971924 C-55.54410114 583.80554004 -57.21440477 584.21497747 -58.88366699 584.62860107 C-62.38469969 585.47591094 -65.37579818 586 -69 586 C-63.67813894 592.33215165 -57.94081817 598.21409098 -52.0847168 604.0456543 C-50.56508332 605.5599258 -49.05087483 607.0794743 -47.53710938 608.59960938 C-43.46765408 612.67156081 -39.40866557 616.72413886 -35.02734375 620.46484375 C-28.80378851 625.79236037 -23.16951456 631.77643618 -17.41796875 637.60253906 C-11.97088252 643.11382792 -6.52757276 648.55705663 -0.62744141 653.59082031 C1.47240079 655.40904551 3.39391196 657.36798004 5.3125 659.375 C10.22440539 664.33719794 15.52610727 668.67512517 21 673 C21.52190918 673.41475586 22.04381836 673.82951172 22.58154297 674.25683594 C28.74525564 679.15463811 34.96059336 683.98036923 41.22900391 688.7434082 C86.70617096 723.31950689 86.70617096 723.31950689 89 736 C89.7336966 743.63044466 86.93122008 748.78405594 82.3125 754.625 C77.71839001 759.65774361 72.29908052 763.89730335 65.5 765.25 C58.67761517 765.54559726 54.30755447 761.09247436 49.52734375 756.7578125 C44.43369884 751.82949455 39.95163735 746.55394336 35.51953125 741.03515625 C27.33951332 731.18108813 18.31088424 722.1828399 8.90991211 713.50292969 C3.98037781 708.94927013 -0.80239688 704.27784476 -5.48852539 699.47412109 C-8.05559051 696.86250539 -10.67554335 694.40024772 -13.46875 692.03125 C-20.86056243 685.63719172 -27.57580564 678.47609302 -34.44580078 671.53369141 C-36.34715567 669.61408658 -38.25163664 667.69762101 -40.15625 665.78125 C-40.72420288 665.20499878 -41.29215576 664.62874756 -41.87731934 664.03503418 C-44.78077272 661.11427447 -47.74138452 658.32368407 -50.86328125 655.63671875 C-55.47300468 651.64958005 -59.74600485 647.3616977 -64.03125 643.03125 C-64.86660278 642.1921106 -65.70195557 641.35297119 -66.56262207 640.48840332 C-70.10336129 636.9314548 -73.63807324 633.3685388 -77.17333984 629.80615234 C-79.7697206 627.19159836 -82.36916566 624.58011816 -84.96875 621.96875 C-85.75544067 621.17376099 -86.54213135 620.37877197 -87.35266113 619.55969238 C-91.54916567 615.34481259 -95.82336913 611.30732146 -100.358078 607.45703125 C-102.40107278 605.64409053 -104.0815485 603.6079503 -105.8125 601.5 C-108.05036548 599.25602808 -109.24126978 598.06747466 -112.44604492 597.7824707 C-118.97630463 598.59478154 -125.17067272 599.89774216 -131.5 601.6875 C-140.28655749 604.08078812 -149.10080299 606.19286825 -158 608.125 C-166.23969999 609.91834308 -174.38688622 611.83444597 -182.515625 614.078125 C-186.42897219 615.11349488 -190.35868845 616.00993906 -194.3125 616.875 C-195.40836426 617.11500732 -195.40836426 617.11500732 -196.52636719 617.35986328 C-197.29110352 617.52728027 -198.05583984 617.69469727 -198.84375 617.8671875 C-218.43271328 621.98218842 -218.43271328 621.98218842 -237.6875 627.375 C-242.05162435 628.78240054 -245.43764915 629.77657036 -250 629 C-255.2573998 624.63368492 -256.11793018 619.56651978 -257 613 C-257.33351203 606.00409476 -257.19178151 598.99854981 -257 592 C-253.25746189 590.36616638 -249.69186816 589.44200998 -245.6796875 588.703125 C-244.43678955 588.46996582 -243.1938916 588.23680664 -241.91333008 587.99658203 C-240.92763535 587.81461273 -240.92763535 587.81461273 -239.92202759 587.62896729 C-225.80270412 585.01504957 -211.78781444 582.0345028 -197.78515625 578.85351562 C-193.48465658 577.88379511 -189.18028863 576.93255814 -184.875 575.984375 C-183.27497533 575.63138569 -181.67495908 575.27835823 -180.07495117 574.92529297 C-177.73243542 574.40841226 -175.38982834 573.89197947 -173.04678345 573.37750244 C-162.65088459 571.09316516 -152.31271173 568.63499668 -142 566 C-145.93502549 560.52498729 -150.14241709 555.54423123 -154.8125 550.6875 C-159.66109798 545.5697114 -164.26659634 540.35825207 -168.68359375 534.859375 C-176.54696952 525.15281334 -184.78607566 515.93071819 -193.79931641 507.27441406 C-206.12727651 495.29944982 -206.12727651 495.29944982 -206.3828125 487.98828125 C-205.34928216 482.62025119 -201.28038878 479.5870757 -196.97802734 476.59277344 C-182.55804487 467.0577261 -182.55804487 467.0577261 -176 466 C-174.88263177 467.42210502 -173.76527224 468.84421688 -172.64794922 470.26635742 C-171.66143885 471.52184111 -170.6747815 472.77720932 -169.68798828 474.0324707 C-167.1675205 477.23907025 -164.64905923 480.44718388 -162.13671875 483.66015625 C-154.31124503 493.66128517 -146.31161622 503.49907255 -138.0793457 513.16870117 C-135.22491203 516.52758859 -132.44076506 519.93214165 -129.6875 523.375 C-125.43027711 528.60879014 -120.88930817 533.54213277 -116.22998047 538.41748047 C-113.4432655 541.33815041 -110.74548359 544.24963993 -108.265625 547.4375 C-107.45609375 548.448125 -106.6465625 549.45875 -105.8125 550.5 C-104.80123047 551.84578125 -104.80123047 551.84578125 -103.76953125 553.21875 C-98.4340821 556.65029416 -92.43513584 554.51785862 -86.53295898 553.26269531 C-83.31180077 552.5104755 -80.10440378 551.72385011 -76.89944458 550.90649414 C-73.25541451 549.97844811 -69.60423188 549.07941793 -65.953125 548.1796875 C-65.2051918 547.99496887 -64.45725861 547.81025024 -63.68666077 547.61993408 C-56.17441278 545.7758835 -48.62489857 544.12362906 -41.0625 542.5 C-30.36536707 540.19364724 -19.68676981 537.81903631 -9.03048706 535.33007812 C-7.58044572 534.99170389 -6.13003989 534.65488679 -4.67922974 534.31982422 C3.31396236 532.47129056 11.18660356 530.40890134 19.01049805 527.93041992 C23.40858509 526.56160737 27.85226512 525.39660848 32.3125 524.25 C33.16005859 524.02957031 34.00761719 523.80914063 34.88085938 523.58203125 C36.91990476 523.05210985 38.9598509 522.52565616 41 522 C40.41522251 516.63530215 38.5620564 512.38948967 36.3125 507.5625 C35.57905347 505.94086102 34.84730205 504.31845437 34.1171875 502.6953125 C33.57529785 501.49503418 33.57529785 501.49503418 33.02246094 500.27050781 C23.17757639 478.40865817 13 449.40518774 13 425 C12.22140625 425.29132813 11.4428125 425.58265625 10.640625 425.8828125 C-7.92512274 432.68454957 -26.53504553 437.50064306 -46 441 C-46.69867188 441.13422363 -47.39734375 441.26844727 -48.1171875 441.40673828 C-83.50288247 448.15545854 -124.78596887 442.92663298 -154.86669922 422.54199219 C-162.03805201 417.50593879 -168.62894778 412.01906039 -175 406 C-176.32941948 404.87037767 -177.66263718 403.74520688 -179 402.625 C-199.78564896 384.4271226 -218.11878793 357.17995847 -227 331 C-227.35191406 330.03320312 -227.70382813 329.06640625 -228.06640625 328.0703125 C-231.99415441 315.15311564 -230.93955242 302.8532807 -225 291 C-234.32623511 295.01679771 -243.52902513 299.11558605 -252.44018555 303.99365234 C-257.02546873 306.50185192 -261.67986341 308.83006285 -266.375 311.125 C-273.00221458 314.38775097 -279.72686974 317.72686974 -285 323 C-295.09384778 324.03970964 -308.05264731 318.57844392 -316 312.625 C-316.99 311.75875 -317.98 310.8925 -319 310 C-317.35208991 300.7591877 -307.89947838 293.47757338 -300.64453125 288.328125 C-284.50019022 277.67921019 -266.61681758 269.9793913 -249.08618164 261.95556641 C-245.37359842 260.25503384 -241.66349585 258.54910289 -237.953125 256.84375 C-236.38737629 256.12425343 -234.82162104 255.40477111 -233.25585938 254.68530273 C-232.47299561 254.32556366 -231.69013184 253.96582458 -230.88354492 253.59518433 C-228.49340172 252.49696824 -226.10316083 251.39896504 -223.71289062 250.30102539 C-219.85240879 248.52774307 -215.99216155 246.75395101 -212.13208008 244.97979736 C-210.76415705 244.35116836 -209.39616209 243.72269583 -208.02807617 243.09442139 C-178.98215787 229.75505976 -150.29656143 215.73374243 -121.75146484 201.35742188 C-113.0970763 197.00501161 -104.4131208 192.74694896 -95.63352966 188.65257263 C-90.86261114 186.42272457 -86.18662384 184.07960717 -81.5625 181.5625 C-71.08642113 175.95584093 -60.44082713 170.69114813 -49.79516602 165.41625977 C-42.52589766 161.80727267 -35.30529654 158.12566464 -28.13671875 154.3203125 C-15.80728136 147.78397988 -3.3024701 141.59714122 9.1875 135.375 C11.60633072 134.16839127 14.02484839 132.9611557 16.44335938 131.75390625 C22.29449671 128.83377594 28.14677602 125.91594531 34 123 C29.08920448 121.71565539 24.31248924 121.66615581 19.25 121.5 C17.49586792 121.4369165 17.49586792 121.4369165 15.70629883 121.37255859 C6.63704026 121.07575256 -2.43058944 120.9311347 -11.50390625 120.8203125 C-13.9580099 120.78726432 -16.41211145 120.75405923 -18.86621094 120.72070312 C-23.73794486 120.65478928 -28.60942708 120.6068152 -33.48144531 120.56835938 C-61.75662995 120.25194983 -93.20698028 118.73265005 -114.9140625 98.2109375 C-121.90641678 90.79956574 -125.16659919 82.95593084 -125.4375 72.6875 C-125.09651555 65.18584211 -123.16148675 60.84771395 -117.75 55.625 C-111.35982389 50.17536929 -104.31669484 46.04676878 -97 42 C-96.31357422 41.61763184 -95.62714844 41.23526367 -94.91992188 40.84130859 C-82.53579578 33.99699971 -69.73470467 28.06990882 -56.87890625 22.17578125 C-51.76079608 19.82635728 -46.68449211 17.40536267 -41.6237793 14.93530273 C-31.24406771 9.87852017 -20.67647052 5.61819462 -9.8215332 1.68920898 C-6.15313286 0.30120548 -4.06630936 -0.48795712 0 0 Z " fill="#C1F094" transform="translate(331,271)"/>
<path d="M0 0 C1.7074998 1.28062485 3.38263741 2.6072711 5 4 C12.05151131 4.65789396 18.63841008 2.57549409 25.40820312 0.77734375 C39.84714966 -2.68167835 54.92138772 -1.39336051 69.48452759 0.67919922 C73.71307894 1.27798055 77.94853629 1.82446072 82.18359375 2.375 C83.14452438 2.50052246 84.10545502 2.62604492 85.09550476 2.75537109 C99.51682045 4.61422229 113.97731317 6.15109305 128.43050766 7.73820877 C132.40996079 8.17556783 136.38918612 8.61498782 140.3684082 9.05444336 C141.14936828 9.14069064 141.93032835 9.22693792 142.73495388 9.31579876 C144.29734002 9.48836586 145.85972401 9.66095248 147.42210579 9.83355904 C148.96598751 10.00410186 150.50987559 10.17458725 152.05377007 10.34501457 C189.23837086 14.44999853 226.36737962 18.9811449 263.49536133 23.56713867 C273.28823801 24.77666639 283.08138414 25.98397171 292.875 27.1875 C293.88614868 27.31194489 294.89729736 27.43638977 295.93908691 27.56460571 C308.18444545 29.07027366 320.43421329 30.51593214 332.69595337 31.88146973 C392.78084369 38.59655767 392.78084369 38.59655767 402.7421875 48.78125 C403.11601563 49.3484375 403.48984375 49.915625 403.875 50.5 C404.45894531 51.35078125 404.45894531 51.35078125 405.0546875 52.21875 C407.77077459 57.33666617 407.77392453 63.37563755 407 69 C397.02933297 92.88230916 365.68794141 105.10430221 343.75195312 114.40380859 C340.26150046 115.88542936 336.77932664 117.38590066 333.29760742 118.88790894 C315.82367453 126.42253445 298.30250721 133.79921787 280.5625 140.6875 C279.84285065 140.96750854 279.12320129 141.24751709 278.38174438 141.53601074 C269.97431007 144.79925146 261.52221491 147.89873831 253.00839233 150.87298584 C247.17534127 152.91778766 241.42426319 155.13636609 235.6875 157.4375 C227.68391108 160.60762731 219.64448121 163.59947255 211.50439453 166.39941406 C205.15996906 168.58208864 198.85916221 170.87094491 192.5625 173.1875 C186.80803497 175.30203283 181.07567745 177.34450309 175.1875 179.0625 C169.27148542 180.80067029 163.6554569 183.10824411 157.99682617 185.53930664 C152.39966675 187.92590931 147.16990257 190 141 190 C141 190.66 141 191.32 141 192 C141.84900879 192.10836182 142.69801758 192.21672363 143.57275391 192.32836914 C147.28537562 193.05592451 150.36228871 194.2492238 153.8359375 195.74609375 C154.82450996 196.16949036 154.82450996 196.16949036 155.83305359 196.60144043 C158.01687896 197.53961154 160.19604605 198.48807482 162.375 199.4375 C163.92888528 200.10961778 165.48284192 200.78157058 167.03686523 201.45336914 C192.75884722 212.60345957 218.28586572 224.17671678 243.62524414 236.16943359 C253.21735592 240.70691535 262.83989416 245.17156887 272.5 249.5625 C273.17388763 249.8690451 273.84777527 250.17559021 274.54208374 250.49142456 C282.29933196 254.0159475 290.078604 257.48526618 297.890625 260.88671875 C342.42595728 280.28073984 342.42595728 280.28073984 357 294 C358.47392656 295.29764298 359.9524106 296.59014737 361.4375 297.875 C363.19001681 299.40983577 364.93998096 300.94627667 366.67578125 302.5 C369.33753754 304.82490872 371.41505498 306.5863525 375 307 C376.11109161 317.88869776 371.05522374 330.09775878 365 339 C363 341 363 341 359.9375 341.0625 C353.02238725 339.83123769 347.84060174 333.77435871 342.8125 329.25 C333.93906058 321.35066028 325.26126872 314.33992894 314.6953125 308.828125 C313.79279755 308.35728989 312.89028259 307.88645477 311.9604187 307.40135193 C300.35229735 301.48520081 288.24713532 296.80351727 276.125 292.0625 C273.66305931 291.09000235 271.20147384 290.11660498 268.74023438 289.14233398 C261.83297633 286.41240994 254.9177123 283.70330164 248 281 C246.3577081 280.35687118 244.71545088 279.71365376 243.07324219 279.0703125 C235.05801987 275.9333786 227.02762528 272.83679422 218.98864746 269.76123047 C211.86509502 267.03441977 204.74525107 264.29791647 197.625 261.5625 C196.79898285 261.24527985 195.9729657 260.92805969 195.12191772 260.60122681 C180.31476613 254.91294675 165.54796168 249.12667068 150.79891968 243.28961182 C146.33517143 241.52421804 141.86637356 239.77212395 137.39453125 238.02734375 C124.18042874 232.86756802 111.04138145 227.58197715 98 222 C98.30703857 223.03592285 98.61407715 224.0718457 98.93041992 225.13916016 C116.36435625 284.08572312 116.36435625 284.08572312 114 297 C111.29432071 301.81199924 109.17165869 303.99466296 104 306 C100.36188722 306.88601658 97.00097967 307.1176523 93.26171875 307.09765625 C92.29967529 307.09515869 91.33763184 307.09266113 90.34643555 307.09008789 C89.13898682 307.08098389 87.93153809 307.07187988 86.6875 307.0625 C84.60262232 307.05100441 82.51774259 307.03987905 80.43286133 307.02905273 C78.62190755 307.01936849 76.81095378 307.00968424 75 307 C71.58473174 287.944459 68.21384167 268.88159002 64.875 249.8125 C64.2279001 246.11898191 63.58067904 242.42548595 62.93255615 238.73214722 C62.51933108 236.37099592 62.10834104 234.0094522 61.69976807 231.64749146 C60.83300987 226.65055321 59.94861708 221.66339458 58.94042969 216.69287109 C58.78631622 215.91022385 58.63220276 215.1275766 58.47341919 214.32121277 C58.07559795 212.32046515 57.65909638 210.32345537 57.24072266 208.3269043 C56.88251996 203.37636859 58.69332546 200.31289467 61.23046875 196.18359375 C63.40796715 192.26601937 64.60535593 188.36066451 65.8125 184.0625 C66.01875 183.33998047 66.225 182.61746094 66.4375 181.87304688 C71.22799505 164.68835153 69.29033665 149.80052789 61.125 134.0625 C58.17657815 129.01994263 54.73786158 124.4786223 51 120 C50.50628906 119.38382813 50.01257813 118.76765625 49.50390625 118.1328125 C45.75618823 113.56242467 41.5333818 109.776531 37 106 C36.04738281 105.19433594 35.09476563 104.38867188 34.11328125 103.55859375 C29.5804622 99.05619645 29.5804622 99.05619645 24 97 C23.52691406 95.93523437 23.05382812 94.87046875 22.56640625 93.7734375 C18.11237731 83.92756923 13.14199331 74.88628819 7 66 C6.37609375 65.0925 5.7521875 64.185 5.109375 63.25 C0.63967342 56.93983307 -4.2334668 50.97854058 -9.12719727 44.99731445 C-25.67362781 24.73948978 -25.67362781 24.73948978 -25.4375 13.7890625 C-24.57352408 8.28121598 -21.47502882 4.95198351 -17.20703125 1.5859375 C-11.71141382 -1.74542646 -6.11647831 -1.55569196 0 0 Z " fill="#C1F094" transform="translate(574,592)"/>
<path d="M0 0 C3.27211124 1.40540153 5.1363356 3.02948372 7.43359375 5.73046875 C14.23262478 13.9383823 14.23262478 13.9383823 23.2734375 18.90234375 C26.65241974 18.59397905 29.71931329 17.86372882 33 17 C35.7122704 16.64040814 38.40390405 16.32660368 41.125 16.0625 C41.88651871 15.98401825 42.64803741 15.9055365 43.43263245 15.82467651 C77.72750045 12.3600707 112.13312135 12.6870852 146.55858552 12.74286216 C152.51037833 12.75149523 158.46208558 12.7453701 164.41387296 12.735605 C170.27404832 12.72639298 176.13418802 12.72531262 181.99436831 12.73048234 C185.44502923 12.7335247 188.89563381 12.7342354 192.34629059 12.72740936 C206.84670568 12.70776405 221.28278392 12.98729858 235.75292969 13.90332031 C237.02417316 13.98233456 238.29541664 14.0613488 239.60518265 14.14275742 C260.27705185 15.56874214 277.46078108 21.30026891 295.8125 30.9375 C296.43196503 31.26025909 297.05143005 31.58301819 297.68966675 31.91555786 C359.47918896 64.13457039 359.47918896 64.13457039 367 85 C368.85092577 91.13273407 369.15779206 98.2747908 366.5 104.1875 C361.26748003 113.07188287 353.50908202 118.33583373 344 122 C342.01029195 122.39009357 340.0109042 122.74043225 338 123 C337.88398437 123.87398438 337.76796875 124.74796875 337.6484375 125.6484375 C335.1971768 138.31820665 326.21936985 148.87539408 315.77734375 155.98828125 C302.00973606 164.8664443 288.31931909 170.79531008 272 173 C271.11957031 173.11939941 270.23914063 173.23879883 269.33203125 173.36181641 C255.54982229 175.17390425 241.72714105 176.38861359 227.875 177.5 C211.67878972 178.80099601 195.56302069 180.36812818 179.53125 183.078125 C169.00346017 184.84641036 158.69538892 186.37599004 148 186.4375 C147.13487793 186.44740967 146.26975586 186.45731934 145.37841797 186.4675293 C126.45310922 186.21098376 114.63375187 173.58494599 102 161 C99.74203303 158.62207854 97.56126571 156.20486634 95.41015625 153.73046875 C91.54301151 149.34937609 87.50628787 145.12719242 83.48999023 140.88305664 C79.79586778 136.96463244 76.20517215 132.97662856 72.67431641 128.91064453 C70.171833 126.05493804 67.58872965 123.27734383 65 120.5 C61.21262044 116.41800101 57.48229355 112.30226124 53.83984375 108.08984375 C51.43329844 105.35629441 48.96696804 102.67885994 46.5 100 C42.89984677 96.09020819 39.35582336 92.14133464 35.875 88.125 C33.45449725 85.38176355 30.97788745 82.69125414 28.5 80 C25.34326271 76.56922922 22.19992294 73.1296065 19.125 69.625 C18.58101562 69.00625 18.03703125 68.3875 17.4765625 67.75 C16.51768373 66.61355109 15.59280138 65.44719703 14.7109375 64.25 C11.56536394 60.02884322 8.9444899 59.37346942 4 58 C1.91642784 55.41349663 1.08615903 53.33027629 0.25 50.125 C-2.88071926 42.29820185 -10.44571499 38.18293647 -17.328125 33.89453125 C-20.75724324 31.46306583 -22.68994344 29.75419386 -23.43359375 25.546875 C-22.85083931 22.12384893 -21.45063189 20.74835336 -19.0625 18.25 C-18.24394531 17.38632813 -17.42539062 16.52265625 -16.58203125 15.6328125 C-15.72996094 14.76398438 -14.87789062 13.89515625 -14 13 C-13.19949219 12.17242187 -12.39898438 11.34484375 -11.57421875 10.4921875 C-7.89324885 6.74316606 -4.22980109 3.13823952 0 0 Z " fill="#FFA2D7" transform="translate(588,74)"/>
<path d="M0 0 C130.84635911 44.07846882 130.84635911 44.07846882 154.3203125 90.23828125 C155.9162455 94.10938694 156.1131702 97.82410276 156.00390625 101.97265625 C155.99262695 102.67849854 155.98134766 103.38434082 155.96972656 104.11157227 C155.83732695 109.13288559 155.34979949 113.30873552 153.69140625 118.03515625 C153.48128906 118.66550781 153.27117187 119.29585937 153.0546875 119.9453125 C145.87412208 138.68483688 129.44269959 155.77106734 115.69140625 170.03515625 C114.54140137 171.24196045 114.54140137 171.24196045 113.36816406 172.47314453 C103.12994856 183.17709075 93.12829954 192.99578718 80.54248047 200.85986328 C77.39557704 202.85791038 74.35321266 204.9996135 71.31640625 207.16015625 C70.73431396 207.57370361 70.15222168 207.98725098 69.55249023 208.41333008 C65.23818241 211.52904744 61.36752968 214.96779273 57.4765625 218.5859375 C53.86210814 221.76442682 50.08817184 224.69052515 46.25390625 227.59765625 C45.20517334 228.40372314 45.20517334 228.40372314 44.13525391 229.22607422 C43.47444824 229.72123535 42.81364258 230.21639648 42.1328125 230.7265625 C41.54185791 231.17201416 40.95090332 231.61746582 40.34204102 232.07641602 C38.69140625 233.03515625 38.69140625 233.03515625 35.69140625 233.03515625 C23.29356538 224.61398132 12.83459756 212.7676886 3.69140625 201.03515625 C2.52737932 199.55335747 1.36331374 198.07158906 0.19921875 196.58984375 C-15.30859375 176.78259611 -15.30859375 176.78259611 -15.30859375 174.03515625 C-14.65375 173.88820313 -13.99890625 173.74125 -13.32421875 173.58984375 C-0.00672308 170.36216555 -0.00672308 170.36216555 10.44140625 162.09765625 C13.64890086 154.73351047 12.70692907 144.76899796 10.00390625 137.41015625 C7.82558664 132.79273229 5.21874364 129.41592166 0.66796875 126.9296875 C-3.71764639 125.6117008 -7.94005936 125.69755845 -12.49609375 125.72265625 C-13.46047363 125.72394531 -14.42485352 125.72523438 -15.41845703 125.7265625 C-24.58139773 125.84698886 -33.35404736 127.177917 -42.30859375 129.03515625 C-56.03834929 103.64661388 -64.58543418 76.13171959 -70.74609375 48.03515625 C-71.00551758 46.85969238 -71.26494141 45.68422852 -71.53222656 44.47314453 C-72.78079637 38.53685629 -73.61338823 33.10130987 -73.30859375 27.03515625 C-72.17421875 26.49890625 -71.03984375 25.96265625 -69.87109375 25.41015625 C-67.15111709 23.8235032 -66.43596509 23.3234177 -65.12109375 20.34765625 C-65.30828594 17.04059425 -65.90606996 15.46323224 -67.30859375 12.53515625 C-68.66056147 9.69839591 -69.30498044 8.09537804 -69.49609375 4.91015625 C-60.68156033 -16.43029309 -16.66030245 -5.33381155 0 0 Z " fill="#FEFEFE" transform="translate(451.30859375,653.96484375)"/>
<path d="M0 0 C5.26964972 0.01167017 10.53864705 -0.00907078 15.80821133 -0.03791714 C19.91150623 -0.0562472 24.01464206 -0.05599642 28.11796761 -0.05027962 C30.06316123 -0.05012707 32.00836607 -0.05611619 33.95351982 -0.06857109 C36.65303508 -0.083477 39.35130468 -0.07281989 42.05078125 -0.05566406 C42.83875092 -0.06533203 43.62672058 -0.075 44.43856812 -0.08496094 C49.99164517 -0.0112009 53.22878726 1.28508758 57.81469727 4.44604492 C62.13428897 9.82110747 61.29205517 15.79974388 61.25219727 22.38354492 C61.27217773 23.55079102 61.2921582 24.71803711 61.31274414 25.9206543 C61.30655348 36.7852642 61.30655348 36.7852642 56.81469727 41.44604492 C53.2539346 44.12695081 49.82812534 45.12814803 45.50219727 46.07104492 C44.43356445 46.31081055 43.36493164 46.55057617 42.26391602 46.79760742 C34.71441265 48.21687985 27.46531005 48.6173185 19.79907227 48.59057617 C18.75080261 48.58822464 17.70253296 48.58587311 16.62249756 48.58345032 C5.40944611 48.50902556 -5.74945994 47.87049483 -16.93530273 47.13354492 C-19.07891741 46.9986829 -21.22255388 46.86416709 -23.36621094 46.72998047 C-33.02222483 46.1149781 -42.66914358 45.4415949 -52.30639648 44.57885742 C-53.08876678 44.50953506 -53.87113708 44.44021271 -54.67721558 44.36878967 C-58.19990496 44.05385279 -61.71878884 43.72293642 -65.23706055 43.36083984 C-90.52955279 40.97948685 -116.32754201 42.51100172 -141.69326401 43.19324875 C-144.16744773 43.2597448 -146.64165943 43.32512147 -149.11587524 43.39041138 C-194.84046702 44.60519971 -240.64700121 45.91519146 -286.25439453 49.53173828 C-287.03123093 49.59327087 -287.80806732 49.65480347 -288.60844421 49.71820068 C-290.62660953 49.88049194 -292.64426731 50.04906281 -294.66186523 50.21826172 C-298.18048222 50.44573329 -301.66041968 50.4859717 -305.18530273 50.44604492 C-305.18530273 51.10604492 -305.18530273 51.76604492 -305.18530273 52.44604492 C-304.65165604 52.65470184 -304.11800934 52.86335876 -303.56819153 53.07833862 C-300.23896539 54.98921401 -297.73903847 57.62267372 -295.05908203 60.3293457 C-294.45526703 60.93126236 -293.85145203 61.53317902 -293.2293396 62.15333557 C-291.2344812 64.14449003 -289.24691654 66.1427558 -287.25952148 68.14135742 C-285.86989739 69.53217439 -284.47990258 70.92262106 -283.08955383 72.31271362 C-280.17378127 75.23005078 -277.26139887 78.15071671 -274.3515625 81.07397461 C-270.6379879 84.80446777 -266.91793679 88.52841654 -263.19551373 92.2500782 C-260.32202758 95.12383766 -257.45116619 98.00020728 -254.58115578 100.87743759 C-253.2115358 102.25022143 -251.84132548 103.62241657 -250.47049522 104.99399185 C-237.51336664 117.96586643 -237.51336664 117.96586643 -232.54370117 123.85839844 C-230.00952388 126.82025231 -227.25109326 129.56448833 -224.49780273 132.32104492 C-223.94286133 132.88823242 -223.38791992 133.45541992 -222.81616211 134.03979492 C-220.12711875 136.73843059 -217.81050524 139.05241476 -214.18530273 140.44604492 C-214.18530273 152.15404954 -221.01564563 163.55201494 -228.34936523 172.35620117 C-231.1809032 174.03705031 -233.06775053 173.23985826 -236.18530273 172.44604492 C-238.40771484 170.80712891 -238.40771484 170.80712891 -240.46264648 168.69213867 C-241.22383789 167.9193457 -241.9850293 167.14655273 -242.76928711 166.3503418 C-243.93427734 165.12927734 -243.93427734 165.12927734 -245.12280273 163.88354492 C-245.8955957 163.09657227 -246.66838867 162.30959961 -247.46459961 161.4987793 C-252.21489899 156.62801585 -256.74744638 151.601044 -261.18530273 146.44604492 C-269.43438409 137.09618006 -277.78656947 128.55739533 -287.53833008 120.76782227 C-289.35196662 119.31228888 -291.15412454 117.84332004 -292.95483398 116.37182617 C-298.82123804 111.580834 -304.69383101 106.8077672 -310.68603516 102.17456055 C-316.8945531 97.37064938 -322.74917274 92.33397623 -328.46655273 86.95385742 C-330.34670086 85.21958285 -332.28575601 83.54782958 -334.26733398 81.93041992 C-340.32910661 76.76939262 -345.98871032 70.20733811 -348.18530273 62.44604492 C-347.96385783 59.06901018 -347.69916286 56.47376518 -346.18530273 53.44604492 C-347.08434326 53.53168701 -347.98338379 53.6173291 -348.90966797 53.70556641 C-353.14676907 54.10513003 -357.38448987 54.49707178 -361.62280273 54.88354492 C-362.39682434 54.9542923 -363.17084595 55.02503967 -363.96832275 55.09793091 C-373.66906111 55.97588197 -383.31916413 56.64746424 -393.06030273 56.88354492 C-403.29975639 57.14503521 -413.25791555 58.40484849 -423.3605957 60.07470703 C-443.40457991 63.29410748 -443.40457991 63.29410748 -448.97827148 59.58984375 C-452.73800974 55.93782366 -453.25699138 52.11069417 -453.45092773 47.05541992 C-453.45887839 45.43563939 -453.45321943 43.81574587 -453.43530273 42.19604492 C-453.43143555 41.3564624 -453.42756836 40.51687988 -453.42358398 39.65185547 C-453.34058036 33.69692208 -452.7009855 28.22458545 -451.18530273 22.44604492 C-446.92858081 21.65818254 -442.8027116 21.25757407 -438.47851562 21.08886719 C-437.51313873 21.04957596 -437.51313873 21.04957596 -436.52825928 21.00949097 C-435.13541746 20.95327948 -433.74250519 20.89879236 -432.34953499 20.84585762 C-430.10985421 20.76062041 -427.87041077 20.67055162 -425.63096619 20.57933044 C-420.04654341 20.35283289 -414.46181379 20.13431849 -408.8770752 19.91577148 C-381.39276613 18.83851573 -353.95808784 17.51655703 -326.56030273 15.00854492 C-305.58598679 13.15968466 -284.56504527 12.07554404 -263.54171753 10.95346069 C-257.33398693 10.62120619 -251.12826806 10.2682848 -244.92358398 9.88354492 C-207.47751339 7.59700875 -169.91323906 6.84459115 -132.40966797 6.05419922 C-117.90697529 5.74842938 -103.42268339 5.31705679 -88.93530273 4.57104492 C-88.24680237 4.53760986 -87.558302 4.5041748 -86.84893799 4.46972656 C-79.55939584 4.10844052 -72.31710416 3.60443524 -65.06982422 2.72216797 C-43.37830909 0.14470341 -21.82525985 -0.05081863 0 0 Z " fill="#FFA2D7" transform="translate(493.185302734375,91.553955078125)"/>
<path d="M0 0 C1.82535782 -0.00143509 1.82535782 -0.00143509 3.68759155 -0.00289917 C6.23704073 -0.00357401 8.78649171 -0.00176881 11.3359375 0.00244141 C15.20837298 0.00780895 19.080693 0.00246772 22.953125 -0.00390625 C25.44791692 -0.00324553 27.94270877 -0.00196448 30.4375 0 C31.57845123 -0.00202423 32.71940247 -0.00404846 33.89492798 -0.00613403 C40.21122883 0.01204714 46.42352066 0.30909941 52.71258545 0.88803101 C57.23420977 1.27322918 61.75842388 1.4150463 66.29296875 1.5625 C68.28192216 1.63615077 70.27085392 1.71038777 72.25976562 1.78515625 C75.32643834 1.89816596 78.39305574 2.00763827 81.46020508 2.10693359 C93.48021285 2.50248726 104.87603631 3.19763025 116.5859375 6.1328125 C117.83105103 6.42937744 117.83105103 6.42937744 119.10131836 6.73193359 C133.69117813 10.36262012 146.1445844 16.20605713 157.5859375 26.1328125 C158.42769531 26.76445312 159.26945313 27.39609375 160.13671875 28.046875 C166.76843212 33.6949371 170.29421266 41.90956456 172.5859375 50.1328125 C171.56886719 50.66068359 171.56886719 50.66068359 170.53125 51.19921875 C163.85525495 54.74063995 157.6330085 58.60008466 151.5859375 63.1328125 C150.90144531 63.638125 150.21695313 64.1434375 149.51171875 64.6640625 C145.49511361 67.8301915 142.62049009 70.97903218 141.5859375 76.1328125 C141.14651997 82.29294882 141.53435037 88.05879045 142.5859375 94.1328125 C132.11266878 98.10219178 122.47530959 98.89307655 111.3984375 99.2578125 C108.25872061 99.37665999 105.11953211 99.50565684 101.98046875 99.640625 C101.2023584 99.67323929 100.42424805 99.70585358 99.62255859 99.73945618 C93.43433462 100.02698309 87.31903177 100.65615386 81.16966248 101.38905334 C73.61237924 102.28017321 66.05758078 102.75937738 58.4609375 103.1953125 C48.9854501 103.65549182 48.9854501 103.65549182 39.5625 104.67578125 C23.11153876 106.93839665 -2.57867865 108.55918967 -16.4140625 98.1328125 C-21.04386757 92.1140659 -20.05399037 84.05393288 -19.12255859 76.89111328 C-16.99039785 62.70914785 -16.99039785 62.70914785 -15.4140625 61.1328125 C-13.57877988 61.02630264 -11.73937986 60.99037491 -9.90103149 60.98132324 C-8.10535736 60.96880775 -8.10535736 60.96880775 -6.27340698 60.95603943 C-4.93438747 60.95172922 -3.59536768 60.94750547 -2.25634766 60.94335938 C-0.85534412 60.93542119 0.54565692 60.92703357 1.94665527 60.91822815 C4.97231707 60.90012844 7.99797323 60.88512728 11.02366257 60.87245178 C15.81550323 60.8522494 20.60728281 60.82458825 25.39907837 60.79577637 C35.58633596 60.73559462 45.77363095 60.68390708 55.9609375 60.6328125 C66.92427998 60.57768966 77.88760369 60.52092521 88.85088885 60.45526361 C93.60546675 60.42706357 98.36003831 60.40341205 103.11465716 60.38333893 C106.08920378 60.36984467 109.06371866 60.3524375 112.03823853 60.33402824 C114.05547582 60.32270785 116.07273764 60.31605189 118.08999634 60.30958557 C125.3079356 60.26043572 132.41103508 59.93448499 139.5859375 59.1328125 C135.88690989 54.10758313 132.45752392 51.5616317 126.8359375 48.9453125 C126.1236499 48.60290527 125.4113623 48.26049805 124.67749023 47.90771484 C119.74819748 45.57648237 114.85545739 43.5569745 109.5859375 42.1328125 C108.96847656 41.96450928 108.35101563 41.79620605 107.71484375 41.62280273 C100.71643757 39.89792753 93.7013764 39.48826958 86.5234375 39.0703125 C85.84556183 39.02956604 85.16768616 38.98881958 84.4692688 38.94683838 C60.76232798 37.52656094 37.07019055 37.01835887 13.32400513 36.90264893 C10.94708113 36.88959916 8.57017768 36.87178741 6.19332886 36.84881592 C-10.55038594 36.69860822 -27.63651898 36.58112303 -43.3515625 43.1953125 C-44.00833984 43.45119141 -44.66511719 43.70707031 -45.34179688 43.97070312 C-48.27926783 45.13789026 -50.77367403 46.37255352 -53.4140625 48.1328125 C-54.67393389 54.93611801 -52.23649197 59.19651439 -48.6640625 64.9296875 C-45.46069654 69.49003487 -41.8957292 73.66495624 -38.23828125 77.86328125 C-31.39392539 85.72974003 -25.41170891 94.01159549 -19.8515625 102.8203125 C-10.59993103 117.62003319 -10.59993103 117.62003319 4.171875 125.76953125 C20.10516385 128.65718386 36.67391187 128.25312907 52.81085205 128.36297607 C54.51023768 128.37600356 56.20959476 128.39379727 57.90887451 128.41680908 C72.85178461 128.60420069 86.79529263 127.42909583 100.5859375 121.1328125 C102.24983852 120.45927288 103.91586378 119.79089759 105.5859375 119.1328125 C113.83813191 127.43383646 119.39394471 137.61857832 121.0234375 149.2578125 C120.38674457 153.44179463 118.97504742 154.62487116 115.5859375 157.1328125 C109.60705784 159.66864446 103.23270348 160.62078806 96.84570312 161.56616211 C93.80495331 162.09474062 90.94690321 162.85274626 87.9765625 163.6796875 C78.76880321 165.8279251 69.55374846 165.49771812 60.1484375 165.3828125 C58.26571147 165.37022631 56.38298 165.35843033 54.50024414 165.34741211 C12.69715961 165.03916089 12.69715961 165.03916089 -7.4140625 159.1328125 C-8.41179688 158.84535156 -9.40953125 158.55789063 -10.4375 158.26171875 C-27.92095214 152.62593547 -39.96908782 137.49262217 -50.4140625 123.1328125 C-50.85169922 122.5346875 -51.28933594 121.9365625 -51.74023438 121.3203125 C-53.07515566 119.49133472 -54.40299001 117.65751754 -55.7265625 115.8203125 C-56.32126343 114.99503052 -56.32126343 114.99503052 -56.92797852 114.15307617 C-57.68200373 113.09294112 -58.42724898 112.0264853 -59.16195393 110.95287037 C-59.99385127 109.74362915 -60.84338907 108.54632861 -61.71036816 107.36198711 C-65.23073975 102.26593509 -66.15132086 98.44863661 -66.10864258 92.31762695 C-66.12222305 91.47592957 -66.13580353 90.63423218 -66.14979553 89.76702881 C-66.18682716 87.00960307 -66.18713971 84.25374497 -66.18359375 81.49609375 C-66.19459112 79.5689382 -66.2066263 77.64178831 -66.21965027 75.71464539 C-66.24050069 71.68744093 -66.24186435 67.66078248 -66.23071289 63.63354492 C-66.21898813 58.47444643 -66.26666994 53.31779658 -66.33017445 48.15914631 C-66.37075016 44.18446679 -66.37454294 40.2103805 -66.36777306 36.23552513 C-66.36997829 34.33328766 -66.38486537 32.43102064 -66.41272926 30.52898598 C-66.44722697 27.8709387 -66.4308457 25.21782169 -66.40161133 22.55981445 C-66.42251831 21.77684494 -66.44342529 20.99387543 -66.46496582 20.18717957 C-66.40974426 17.98310852 -66.40974426 17.98310852 -65.4140625 14.1328125 C-61.25896626 10.31871313 -56.16129484 8.4419563 -50.7890625 6.9453125 C-49.72429688 6.64238281 -48.65953125 6.33945312 -47.5625 6.02734375 C-46.52351563 5.73214844 -45.48453125 5.43695313 -44.4140625 5.1328125 C-43.39570312 4.78734375 -42.37734375 4.441875 -41.328125 4.0859375 C-28.15801368 -0.22171285 -13.71088142 -0.02441193 0 0 Z " fill="#FEA2D7" transform="translate(65.4140625,261.8671875)"/>
<path d="M0 0 C9.59375375 -0.15689861 18.94826571 0.26302235 28.5 1.1875 C29.92747666 1.32135252 31.35496743 1.45505467 32.7824707 1.58862305 C45.55730873 2.80030173 58.30989541 4.21690991 71.0635376 5.63150024 C88.31934673 7.5423688 105.59165499 9.23389839 122.875 10.875 C151.43426168 13.59061953 179.94590378 16.67040112 208.45777893 19.84066772 C215.48070119 20.61907222 222.5050532 21.37529823 229.53515625 22.0859375 C230.31027054 22.16433868 231.08538483 22.24273987 231.88398743 22.32351685 C232.63697617 22.39964203 233.3899649 22.47576721 234.16577148 22.55419922 C251.28768284 24.28609127 268.36310551 26.35116077 285.4375 28.5 C286.59323517 28.6438916 287.74897034 28.7877832 288.93972778 28.93603516 C300.90678735 30.43107664 312.83613336 32.04663226 324.72265625 34.09375 C325.65871201 34.254198 326.59476776 34.414646 327.55918884 34.57995605 C332.47998755 35.45462419 337.22318965 36.52757525 342 38 C342 38.66 342 39.32 342 40 C339.32682235 41.33658883 336.96880089 41.3760442 333.98828125 41.6484375 C332.76278564 41.76469482 331.53729004 41.88095215 330.2746582 42.00073242 C328.967146 42.12424072 327.65963379 42.24774902 326.3125 42.375 C309.66189612 44.04038897 295.87924767 46.64069819 280.71923828 53.74316406 C265.59299189 60.73453742 250.20887903 67.09014681 234.5625 72.8125 C233.4168457 73.23184814 232.27119141 73.65119629 231.09082031 74.08325195 C224.11649246 76.59902678 217.1039992 78.97711198 210.06640625 81.30859375 C198.45546448 85.15599743 186.90669943 89.17173426 175.375 93.25 C174.33149384 93.61895386 173.28798767 93.98790771 172.21286011 94.36804199 C159.74515628 98.78609372 147.31573496 103.26401843 135.0625 108.25 C134.03624512 108.66668945 133.00999023 109.08337891 131.95263672 109.51269531 C124.14102989 112.7698695 116.6491219 116.36635968 110.0625 121.75 C106.32062184 124.7857389 104.30473045 126.15859661 99.4375 126.25 C98.63183594 126.27578125 97.82617188 126.3015625 96.99609375 126.328125 C94.28026119 126.03069353 92.67676011 125.49966185 90.1953125 124.49609375 C83.20712747 122.03927013 75.74247366 122.68428598 68.4375 122.8125 C66.93686241 122.82757608 65.43621015 122.84125931 63.93554688 122.85351562 C60.29005548 122.88628518 56.64512365 122.93790521 53 123 C52.77449463 122.16678223 52.54898926 121.33356445 52.31665039 120.47509766 C45.48766156 95.37869275 38.2843531 70.51902217 27 47 C26.62794434 46.20964355 26.25588867 45.41928711 25.87255859 44.60498047 C19.14078161 30.35423161 11.39022068 16.80100631 2.14453125 4.01953125 C0 1 0 1 0 0 Z " fill="#FEFEFE" transform="translate(604,627)"/>
<path d="M0 0 C1.09699219 -0.02835937 2.19398438 -0.05671875 3.32421875 -0.0859375 C7.03545625 0.48651482 8.09926886 1.3803319 10.3125 4.375 C14.4308839 14.33288345 14.29169138 26.78192957 13.3125 37.375 C11.80434888 38.88315112 10.26093752 38.80363346 8.16796875 39.13671875 C7.27811279 39.28270508 6.38825684 39.42869141 5.47143555 39.57910156 C4.49086182 39.73862305 3.51028809 39.89814453 2.5 40.0625 C-27.58537889 45.17352962 -56.59560382 52.29855093 -84.6875 64.375 C-85.84668945 64.87 -85.84668945 64.87 -87.02929688 65.375 C-102.74747361 72.12077241 -117.98299965 79.62941517 -132.6875 88.375 C-133.75871094 89.00792969 -134.82992187 89.64085937 -135.93359375 90.29296875 C-136.92488281 90.89753906 -137.91617188 91.50210938 -138.9375 92.125 C-140.24460937 92.92164063 -140.24460937 92.92164063 -141.578125 93.734375 C-143.804753 95.46619678 -144.67018234 96.77518821 -145.6875 99.375 C-140.63656326 101.45032702 -135.89997509 102.85057101 -130.51338196 103.72599792 C-121.72065094 105.16196152 -113.10782173 106.93592902 -104.48828125 109.1875 C-93.05083052 112.10689697 -81.55606976 114.60518208 -69.9855957 116.93530273 C-66.85672044 117.56618575 -63.7300726 118.20734633 -60.60351562 118.84960938 C-50.6567539 120.87768476 -40.71779923 122.75771569 -30.68003845 124.27459717 C-24.01399949 125.29142441 -17.40292293 126.53708051 -10.78358459 127.81988525 C-0.52162626 129.8055513 9.76976338 131.61943718 20.0625 133.4375 C21.990907 133.77917508 23.91929246 134.12097175 25.84765625 134.46289062 C29.59155786 135.12652282 33.33571162 135.7887032 37.08007812 136.44970703 C40.397166 137.03547287 43.71358822 137.62474038 47.02929688 138.21826172 C54.21589985 139.50190703 61.40586742 140.71265735 68.62548828 141.79833984 C73.34022996 142.53574018 78.04250421 143.33945893 82.74609375 144.14453125 C104.05427489 147.78027815 125.34587451 151.22870606 146.79663086 153.9152832 C147.5432196 154.00881073 148.28980835 154.10233826 149.059021 154.19869995 C151.04503236 154.44566994 153.03164863 154.68776225 155.01831055 154.92944336 C157.02672901 155.20109264 159.03013319 155.52420701 161.0144043 155.93676758 C165.13282821 156.72212516 169.43181512 156.25509848 173.60546875 155.984375 C175.6953125 155.921875 175.6953125 155.921875 179.3125 156.375 C182.00846889 159.84130099 182.695126 162.49403425 182.7109375 166.83203125 C182.71480469 167.86263672 182.71867187 168.89324219 182.72265625 169.95507812 C182.70525391 171.55512695 182.70525391 171.55512695 182.6875 173.1875 C182.70490234 174.77014648 182.70490234 174.77014648 182.72265625 176.38476562 C182.67169911 190.01580089 182.67169911 190.01580089 178.3125 194.375 C169.62209873 194.88676807 161.1281883 193.34891868 152.5625 192.0625 C151.09514018 191.84640618 149.62769245 191.63090835 148.16015625 191.41601562 C145.13913057 190.97311465 142.11864809 190.52670721 139.09838867 190.07861328 C134.94703258 189.46512611 130.79299843 188.87191948 126.63804626 188.28334045 C115.07911255 186.64576179 103.53591632 184.91735014 92 183.125 C91.03816803 182.97571045 90.07633606 182.8264209 89.08535767 182.67260742 C71.26312554 179.89861684 53.49417483 176.86461676 35.73826599 173.69650269 C27.20613335 172.17439896 18.6680969 170.68655827 10.13006592 169.19796753 C-5.29525981 166.5066851 -20.71600309 163.79040635 -36.12646484 161.01513672 C-38.64734017 160.5619806 -41.16844819 160.11033231 -43.68994141 159.66064453 C-60.47919153 156.66552454 -77.2302422 153.57043405 -93.90185547 149.96630859 C-96.68149493 149.37627469 -99.46608262 148.81947016 -102.25390625 148.26953125 C-123.64137675 143.96969064 -145.05244696 138.0188832 -164.6875 128.375 C-165.42097656 128.08238281 -166.15445313 127.78976562 -166.91015625 127.48828125 C-169.38869513 125.93578986 -170.21231826 124.07068501 -171.5625 121.5 C-174.05546268 117.08986043 -176.34033222 115.04258023 -180.6875 112.375 C-182.89402822 108.26965668 -183.01642616 104.48238399 -183.0625 99.875 C-183.09085938 98.5859375 -183.11921875 97.296875 -183.1484375 95.96875 C-182.47710988 90.73467023 -180.21934026 88.57300799 -176.16015625 85.3984375 C-173.4272976 83.16206976 -171.94413155 81.01359612 -170.125 78 C-169.52816406 77.030625 -168.93132813 76.06125 -168.31640625 75.0625 C-167.77886719 74.175625 -167.24132812 73.28875 -166.6875 72.375 C-141.11478709 31.75951479 -60.39906007 15.04735621 -16.89599609 3.25366211 C-14.58774031 2.62153515 -12.28694561 1.96192943 -9.99145508 1.28491211 C-6.54646056 0.33615761 -3.567022 0.04221328 0 0 Z " fill="#C1F094" transform="translate(803.6875,328.625)"/>
<path d="M0 0 C6.81659905 4.00104727 10.25209652 11.28143225 14 18 C14.34885254 18.61842773 14.69770508 19.23685547 15.05712891 19.87402344 C20.17922114 29.08573809 23.53509528 38.20955564 26.08984375 48.4296875 C26.81743395 51.81187621 26.81743395 51.81187621 28 54 C30.01262981 54.29258495 32.03661522 54.50840341 34.0625 54.6875 C40.77816688 55.60998171 44.75119664 57.71408715 49 63 C51.75561713 67.49265631 51.58796947 71.87847648 51 77 C48.83268823 85.5144391 41.22684771 90.29225618 34.19580078 94.79638672 C31.24105729 96.54367501 28.25921705 98.2233316 25.25 99.875 C24.16452881 100.47578369 23.07905762 101.07656738 21.96069336 101.69555664 C-12.73224429 120.63618905 -49.1073429 131.5399635 -88 138 C-89.07838135 138.18175781 -90.1567627 138.36351562 -91.26782227 138.55078125 C-105.38366786 140.55110661 -119.59715655 140.30460881 -133.8215332 140.26074219 C-137.57419909 140.24929708 -141.32658029 140.25596471 -145.07923603 140.26788712 C-148.01265038 140.27517123 -150.945999 140.27278889 -153.87941551 140.26763153 C-155.26224999 140.2663158 -156.64509082 140.26786809 -158.02791786 140.27259064 C-186.65885715 140.34903903 -206.25231351 129.84412259 -226.25 110 C-230.94227229 105.2877007 -235.38292921 100.58035161 -239.30859375 95.19921875 C-241.50708073 92.34067794 -243.92766107 89.70652232 -246.375 87.0625 C-246.84760254 86.55041992 -247.32020508 86.03833984 -247.80712891 85.51074219 C-250.0011635 83.13983002 -252.20678848 80.78122378 -254.42578125 78.43359375 C-261.2554563 71.08491058 -268.64969956 62.88653225 -270.625 52.8125 C-269.79854707 47.77113715 -267.85668496 46.22180236 -263.984375 43.05859375 C-258.29828299 39.13638107 -252.17898924 36.0643183 -246 33 C-245.25363281 32.59523437 -244.50726563 32.19046875 -243.73828125 31.7734375 C-242 31 -242 31 -239 31 C-237.37827599 33.11408804 -235.96851428 35.18485948 -234.5625 37.4375 C-233.67006945 38.82036836 -232.77544987 40.20182593 -231.87890625 41.58203125 C-231.40984863 42.30729004 -230.94079102 43.03254883 -230.45751953 43.77978516 C-220.72705635 58.6020351 -210.18764664 73.10426826 -198 86 C-197.2471875 86.80566406 -196.494375 87.61132812 -195.71875 88.44140625 C-185.0850394 99.49391025 -174.83129195 102.79973279 -159.63183594 103.27148438 C-153.44644993 103.3827172 -147.26298885 103.37641443 -141.0769043 103.33618164 C-137.20665519 103.31261663 -133.33709957 103.31563461 -129.46679688 103.32226562 C-111.13291284 103.3031308 -93.85380968 102.19729912 -75.9375 98.125 C-74.72924561 97.85526367 -73.52099121 97.58552734 -72.27612305 97.30761719 C-69.90105176 96.77603921 -67.52674116 96.24104753 -65.15332031 95.70214844 C-62.54208386 95.12070557 -59.93073393 94.57907228 -57.3046875 94.0703125 C-36.02336024 89.80693295 -15.69444525 79.7980638 3 69 C0.01507888 62.518457 -5.21663538 57.73500867 -10.27441406 52.8125 C-28.96748093 34.58230907 -28.96748093 34.58230907 -30.5 24.8125 C-29.51050607 17.26760875 -24.82875313 12.42302343 -19.125 7.6875 C-7.06751033 -1.38277376 -7.06751033 -1.38277376 0 0 Z " fill="#FFA2D7" transform="translate(557,136)"/>
<path d="M0 0 C1.25490234 0.89138672 1.25490234 0.89138672 2.53515625 1.80078125 C13.73834374 10.23274287 23.7286027 23.43935033 28 37 C29.39471344 49.2439747 27.21468846 57.37409497 20.234375 67.58203125 C15.26713135 72.95742254 9.20646099 74.80536685 2.3125 76.5 C1.49233398 76.70794189 0.67216797 76.91588379 -0.17285156 77.13012695 C-34.06171186 85.55089784 -67.88678526 87.33208584 -102.65447998 87.07904053 C-108.91029349 87.03492474 -115.16616682 87.00620295 -121.42208862 86.9829998 C-123.5881756 86.97282916 -125.75413016 86.95581649 -127.92016602 86.93800354 C-129.21752686 86.93147263 -130.5148877 86.92494171 -131.8515625 86.91821289 C-132.99447754 86.90995987 -134.13739258 86.90170685 -135.31494141 86.89320374 C-137.97180217 86.81452059 -137.97180217 86.81452059 -140 88 C-142.1640625 87.00390625 -142.1640625 87.00390625 -144.625 85.5625 C-145.44226563 85.08941406 -146.25953125 84.61632812 -147.1015625 84.12890625 C-147.72804688 83.75636719 -148.35453125 83.38382812 -149 83 C-146.23861222 80.1549338 -143.46468053 77.54867606 -140.375 75.0625 C-136.37865613 71.65820707 -134.47505381 68.37526907 -133.4375 63.1875 C-134.96662157 54.52247778 -142.60074925 47.55196319 -149 42 C-151.29324864 40.40821565 -153.47807336 39.23623855 -156 38 C-157.33380682 37.33428114 -158.66724537 36.66782282 -160 36 C-120.044681 -5.67553475 -54.47363362 -39.32588523 0 0 Z " fill="#FEFEFE" transform="translate(581,323)"/>
<path d="M0 0 C2.8772993 1.31160058 5.00810299 2.73498701 7.29296875 4.9140625 C7.91421631 5.50171387 8.53546387 6.08936523 9.17553711 6.69482422 C9.83948486 7.33178223 10.50343262 7.96874023 11.1875 8.625 C12.63009521 9.9949108 14.07280733 11.3646985 15.515625 12.734375 C16.25748047 13.44142578 16.99933594 14.14847656 17.76367188 14.87695312 C19.90973268 16.91430517 22.06876237 18.9365871 24.234375 20.953125 C32.42104786 28.58533337 40.44675996 36.3462321 48.29272461 44.32958984 C51.13013572 47.2033647 53.91727835 49.93253048 57.05078125 52.48828125 C59.40480148 54.49309583 61.2251401 56.3410862 63.20581055 58.67456055 C66.84699184 62.8795023 70.69991905 66.8118822 74.65625 70.71875 C75.36221313 71.42092651 76.06817627 72.12310303 76.79553223 72.84655762 C79.02791358 75.06684603 81.26352111 77.28383955 83.5 79.5 C86.45090378 82.42409479 89.39833203 85.35163057 92.34375 88.28125 C93.33936951 89.264422 93.33936951 89.264422 94.35510254 90.26745605 C98.26468491 94.1567828 101.95250693 98.16174822 105.51208496 102.37487793 C108.08852073 105.1888979 110.23265464 105.82262488 113.95336914 106.19604492 C121.88391102 106.52568843 128.65849481 104.28351369 136.125 101.8125 C137.43583012 101.39319453 138.74719728 100.97556441 140.05908203 100.55957031 C145.18242177 98.92840467 150.29477573 97.27128482 155.359375 95.46484375 C176.87099299 88.03138465 200.65706931 86.45762782 223.21118164 84.51928711 C236.72759623 83.31208514 250.75951975 81.67132824 262.75 74.875 C273.5697556 69.05397149 273.5697556 69.05397149 278.3125 68.875 C286.01832866 71.22593078 290.01939225 77.59002066 293.9375 84.3125 C296.85112257 90.07946329 298.88519406 95.47169382 298 102 C292.52680377 110.99167952 277.49823466 113.60225199 268 116 C263.06273198 117.01172159 258.10820881 117.81289391 253.125 118.5625 C252.44457642 118.66738739 251.76415283 118.77227478 251.06311035 118.88034058 C239.98942398 120.58099496 228.90946591 121.76928262 217.7505188 122.73565674 C193.53412275 124.83666152 170.20518214 128.25180768 147.11230469 135.84790039 C139.19303902 138.38802684 131.20934424 139.77432991 123 141 C121.96101562 141.18433594 120.92203125 141.36867188 119.8515625 141.55859375 C107.08791111 143.53433705 97.44467956 140.27180452 87 133 C76.48643148 124.9176942 76.48643148 124.9176942 72.359375 119.87109375 C70.48541878 117.5907 68.84183433 115.87859779 66.5625 114.0625 C61.85045235 110.04886092 57.75647695 105.52538882 53.57226562 100.97851562 C49.3402071 96.39491231 45.00003329 91.94702114 40.5625 87.5625 C37.09255562 84.13060944 33.65718564 80.72690335 30.5 77 C19.87614792 64.59665269 8.02133993 54.63338101 -5.5546875 45.63671875 C-19.2226804 36.53898528 -19.2226804 36.53898528 -23 30 C-23.6770369 24.36293192 -21.94352745 21.66181099 -18.76171875 17.2265625 C-13.40067666 10.45096606 -6.80296097 5.26989934 0 0 Z " fill="#C1F094" transform="translate(331,468)"/>
<path d="M0 0 C3.19698887 1.35857574 4.75267402 3.86610451 6.72265625 6.60546875 C7.60720073 7.79491994 8.49264925 8.98369925 9.37890625 10.171875 C10.06339844 11.09830811 10.06339844 11.09830811 10.76171875 12.04345703 C13.03011895 15.08409543 15.37408513 18.06407198 17.72265625 21.04296875 C18.18486572 21.63029785 18.6470752 22.21762695 19.12329102 22.82275391 C25.61168024 31.0490841 32.28950779 39.10960267 39.08081055 47.08666992 C41.93524422 50.44555734 44.71939119 53.8501104 47.47265625 57.29296875 C52.27852024 63.20125315 57.481083 68.70837046 62.70703125 74.2421875 C66.60659083 78.37386372 70.39645394 82.59878078 74.171875 86.84375 C76.17754284 89.0861453 76.17754284 89.0861453 79.16015625 90.91796875 C80.51628117 92.51366148 81.87054293 94.11097178 83.21582031 95.71582031 C85.56274131 98.37393526 88.04401799 100.88124871 90.55859375 103.37890625 C91.0416095 103.85869934 91.52462524 104.33849243 92.02227783 104.83282471 C93.52471279 106.32143225 95.02951619 107.80760342 96.53515625 109.29296875 C98.54580755 111.27710596 100.55316346 113.26449384 102.55859375 115.25390625 C103.44208496 116.1257959 104.32557617 116.99768555 105.23583984 117.89599609 C107.16015625 119.91796875 107.16015625 119.91796875 107.16015625 120.91796875 C103.10862266 121.88339132 99.05585265 122.84340204 95.00195312 123.79882812 C93.62857114 124.12325916 92.25551226 124.44906161 90.8828125 124.77636719 C87.5699249 125.56584186 84.2551092 126.33638909 80.9284668 127.06591797 C78.54041039 127.60588019 76.16349568 128.20032325 73.80786133 128.86767578 C66.5541354 130.67808991 66.5541354 130.67808991 62.75048828 128.60400391 C60.38404619 126.56225608 58.38164777 124.41499305 56.34765625 122.04296875 C55.64962891 121.29015625 54.95160156 120.53734375 54.23242188 119.76171875 C52.16518195 117.5149706 50.15682661 115.22750204 48.16015625 112.91796875 C46.88603792 111.45648941 45.61133231 109.99552177 44.3359375 108.53515625 C43.79493408 107.9097998 43.25393066 107.28444336 42.6965332 106.64013672 C40.30556761 103.9600364 38.17103696 101.92522256 35.16015625 99.91796875 C34.19748335 98.72817731 33.28031382 97.50085449 32.3984375 96.25 C29.33345953 92.05845596 25.94221016 88.34368551 22.34765625 84.60546875 C17.49905827 79.48768015 12.89355991 74.27622082 8.4765625 68.77734375 C0.61318673 59.07078209 -7.62591941 49.84868694 -16.63916016 41.19238281 C-28.96712026 29.21741857 -28.96712026 29.21741857 -29.22265625 21.90625 C-28.18758823 16.53023347 -24.11359772 13.46347793 -19.76953125 10.51074219 C-3.2508062 -0.1449404 -3.2508062 -0.1449404 0 0 Z " fill="#C1F094" transform="translate(153.83984375,737.08203125)"/>
<path d="M0 0 C1.80573042 -0.00323109 3.61146061 -0.00659637 5.41719055 -0.01008606 C9.18120934 -0.01602104 12.94520539 -0.01793207 16.70922852 -0.01733398 C20.49703798 -0.01725317 24.28472534 -0.02413341 28.07250977 -0.0378418 C51.05742103 -0.1197925 73.82260581 0.30122987 96.73828125 2.16796875 C99.50163436 2.37635143 102.26511503 2.58288909 105.02870178 2.78814697 C120.33143784 4.08345792 132.85753888 10.43240754 146.24609375 17.546875 C147.0158252 17.95494385 147.78555664 18.3630127 148.57861328 18.78344727 C150.97743015 20.3212825 152.79552769 22.09306822 154.73828125 24.16796875 C153.74368896 24.27286621 153.74368896 24.27286621 152.72900391 24.37988281 C136.32733492 26.11956278 136.32733492 26.11956278 120.17578125 29.35546875 C107.10926942 32.49405071 94.86000697 31.17335779 81.70684814 29.40142822 C57.80082494 26.25421996 33.85343986 25.85892219 9.78546143 25.97235107 C6.86749784 25.98325582 3.94957948 25.98276627 1.03159904 25.98236275 C-26.20208789 25.35620126 -26.20208789 25.35620126 -53.06542969 28.73095703 C-57.77141855 29.7238519 -62.0577344 30.49991031 -66.33496094 27.91503906 C-70.43688627 24.44386814 -73.69639315 20.35216041 -76.87109375 16.03808594 C-78.61166926 13.69735413 -80.5370159 11.56262553 -82.51171875 9.41796875 C-84.29777111 7.37413564 -85.74327724 5.44563102 -87.26171875 3.16796875 C-85.99577881 3.1429126 -84.72983887 3.11785645 -83.42553711 3.09204102 C-78.70848251 2.99754749 -73.99156082 2.89743073 -69.2746582 2.7956543 C-67.23692952 2.75246357 -65.19916834 2.71077797 -63.16137695 2.6706543 C-60.22467271 2.61256564 -57.28812966 2.54898427 -54.3515625 2.484375 C-53.44711899 2.46766251 -52.54267548 2.45095001 -51.61082458 2.43373108 C-50.75046097 2.41378586 -49.89009735 2.39384064 -49.00366211 2.37329102 C-48.25531601 2.35774673 -47.50696991 2.34220245 -46.73594666 2.32618713 C-44.11899763 2.19229291 -44.11899763 2.19229291 -40.97994995 1.68963623 C-36.99906222 1.13111806 -33.03865661 0.82921334 -29.02807617 0.6159668 C-28.24759257 0.57392718 -27.46710897 0.53188757 -26.66297436 0.48857403 C-17.77664183 0.04561703 -8.89554108 0.00384401 0 0 Z " fill="#FFFDFE" transform="translate(726.26171875,121.83203125)"/>
<path d="M0 0 C16.99687557 -0.52567656 31.59313486 2.30077658 47.6875 7.59765625 C73.82472939 16.13237874 103.90488798 13.02764356 130.03540039 5.5793457 C137.21129594 4.17702337 144.25449963 5.28494725 151.4140625 6.27734375 C152.3873349 6.40814835 153.3606073 6.53895294 154.3633728 6.67372131 C157.45127205 7.09005458 160.53810726 7.51377574 163.625 7.9375 C165.70566671 8.21856172 167.78639539 8.49916509 169.8671875 8.77929688 C186.14947237 10.98144065 186.14947237 10.98144065 192 12 C183.13043535 24.19565139 167.0726767 25.82147105 153.0625 28.0625 C118.99636186 33.32859017 84.61981055 36.94961021 50.125 37.375 C49.03300293 37.40094238 47.94100586 37.42688477 46.81591797 37.45361328 C35.87335103 37.47929604 29.32946568 33.91571754 21.4765625 26.48828125 C4.10449284 9.03400937 4.10449284 9.03400937 0 0 Z " fill="#FFFDFE" transform="translate(694,185)"/>
<path d="M0 0 C14.018851 -0.19058861 27.99623563 0.39727388 42 1 C40.58309775 3.9075621 39.01803804 6.43872966 37.125 9.0625 C32.69615462 15.65149301 28.57107006 23.90273033 30 32 C33.74576215 37.46379873 37.94046587 39.98082056 43.8125 42.875 C44.60076172 43.2771875 45.38902344 43.679375 46.20117188 44.09375 C48.12796959 45.0746652 50.06316462 46.03905631 52 47 C49.87617057 49.34079083 48.02593202 50.62456612 45.11328125 51.83203125 C44.34701416 52.15316895 43.58074707 52.47430664 42.79125977 52.80517578 C41.97326904 53.13759277 41.15527832 53.47000977 40.3125 53.8125 C39.05167603 54.33046143 39.05167603 54.33046143 37.76538086 54.85888672 C36.030961 55.56715306 34.29469135 56.27090579 32.55664062 56.97021484 C30.90421763 57.63579164 29.25427451 58.30757372 27.60742188 58.98681641 C25.43207878 59.8829571 23.2493883 60.75748042 21.0625 61.625 C20.07987183 62.03262573 20.07987183 62.03262573 19.07739258 62.44848633 C16.40542537 63.4793585 14.60758684 64.1702105 11.796875 63.3828125 C2.96265069 56.58430075 -2.52035072 46.43894785 -6 36 C-6.68782569 23.10326835 -6.08679159 11.66208809 0 0 Z " fill="#A2E85F" transform="translate(379,358)"/>
<path d="M0 0 C5.06504987 3.06568808 9.25721972 6.83799762 13.61328125 10.8359375 C15.43347662 12.48632741 17.26046997 14.0436077 19.1875 15.5625 C30.24637225 25.14685595 38.18894924 38.27435518 43 52 C43.24492188 52.65871094 43.48984375 53.31742188 43.7421875 53.99609375 C48.85367029 70.27581634 42.69641908 89.11673627 36 104 C35.02851532 105.68344744 34.03687793 107.35602253 33 109 C31 106 31 106 29.5625 102.5625 C28.21829174 99.1218553 28.21829174 99.1218553 26.4375 96.9375 C22.54782379 91.69489293 22.90960446 86.35527207 23.1875 80.1875 C23.3776613 71.12779716 21.65075376 63.77315733 18.73974609 55.26464844 C17.67585343 52.00766218 16.80194522 48.70589531 15.90820312 45.39892578 C12.02242081 31.11683291 6.97419376 17.24821597 0.73876953 3.82128906 C0 2 0 2 0 0 Z " fill="#A2E85F" transform="translate(599,688)"/>
<path d="M0 0 C0.43828125 0.92296875 0.8765625 1.8459375 1.328125 2.796875 C7.26527335 15.08349587 14.11089148 26.81447224 21.47509766 38.30078125 C21.93319824 39.01621094 22.39129883 39.73164062 22.86328125 40.46875 C23.27489502 41.10232422 23.68650879 41.73589844 24.1105957 42.38867188 C25 44 25 44 25 46 C-1.19225133 50.43941692 -1.19225133 50.43941692 -14 51 C-26.53121638 29.03324073 -26.53121638 29.03324073 -32.3125 18.1875 C-32.87988892 17.13187866 -32.87988892 17.13187866 -33.45874023 16.05493164 C-36 11.24298968 -36 11.24298968 -36 9 C-32.00052684 7.87312141 -28.00032849 6.7488381 -24 5.625 C-22.87464844 5.30789063 -21.74929688 4.99078125 -20.58984375 4.6640625 C-3.97412109 0 -3.97412109 0 0 0 Z " fill="#A2E85F" transform="translate(410,783)"/>
<path d="M0 0 C1.75774646 1.6205773 3.4315712 3.29949896 5.09709167 5.01472473 C5.7115062 5.63242737 6.32592072 6.25013 6.95895386 6.8865509 C8.25194893 8.18994871 9.54017443 9.49809314 10.82389832 10.81062317 C12.79774217 12.82868856 14.78477799 14.83296101 16.77482605 16.83503723 C18.02886372 18.10249269 19.28214595 19.37069615 20.53459167 20.63972473 C21.13137222 21.24389221 21.72815277 21.84805969 22.34301758 22.47053528 C26.48381042 26.70894733 26.48381042 26.70894733 26.48381042 27.82722473 C22.43227684 28.79264731 18.37950683 29.75265802 14.3256073 30.70808411 C12.95222532 31.03251514 11.57916643 31.35831759 10.20646667 31.68562317 C6.89357908 32.47509784 3.57876337 33.24564507 0.25212097 33.97517395 C-2.13593544 34.51513617 -4.51285014 35.10957923 -6.8684845 35.77693176 C-14.12221042 37.58734589 -14.12221042 37.58734589 -17.92585754 35.51325989 C-20.29229963 33.47151206 -22.29469806 31.32424903 -24.32868958 28.95222473 C-25.02671692 28.19941223 -25.72474426 27.44659973 -26.44392395 26.67097473 C-28.51109018 24.42430667 -30.51793979 22.13523058 -32.51618958 19.82722473 C-33.47017639 18.74779602 -33.47017639 18.74779602 -34.44343567 17.64656067 C-37.56504903 14.11200032 -40.61188722 10.54473175 -43.51618958 6.82722473 C-39.03363407 5.6923203 -34.54766132 4.57215626 -30.05915833 3.46101379 C-28.29765519 3.02199093 -26.53730768 2.57831503 -24.77790833 2.13093567 C-21.96386205 1.41574756 -19.14663999 0.7143521 -16.32868958 0.01472473 C-15.43254944 -0.21625916 -14.5364093 -0.44724304 -13.6131134 -0.68522644 C-12.33730408 -0.99810608 -12.33730408 -0.99810608 -11.03572083 -1.31730652 C-10.28395569 -1.50655701 -9.53219055 -1.6958075 -8.75764465 -1.89079285 C-5.28925162 -2.3271281 -2.85363843 -2.20729428 0 0 Z " fill="#A2E85F" transform="translate(234.5161895751953,830.1727752685547)"/>
<path d="M0 0 C4.89509964 1.68796539 7.33961331 4.35919807 10.625 8.25 C11.49125 9.178125 12.3575 10.10625 13.25 11.0625 C15.08104245 15.30718932 14.05159367 17.20172257 12.453125 21.39453125 C11.48606469 24.72906469 11.60856582 27.5387363 11.6875 31 C11.30644838 36.61722651 11.30644838 36.61722651 8.6015625 39.12890625 C6.02767529 40.45189869 3.46333398 41.53305357 0.73388672 42.49169922 C-1.74875395 43.38439219 -4.18064061 44.37669466 -6.62109375 45.37890625 C-11.52028815 47.3853176 -16.44014385 49.33316715 -21.375 51.25 C-24.42279409 45.96715691 -24.50006509 40.51419045 -24.47265625 34.5390625 C-24.46943359 33.29511719 -24.46621094 32.05117188 -24.46289062 30.76953125 C-24.45451172 29.48433594 -24.44613281 28.19914063 -24.4375 26.875 C-24.43298828 25.56660156 -24.42847656 24.25820313 -24.42382812 22.91015625 C-24.41207594 19.69005719 -24.39564543 16.4700523 -24.375 13.25 C-23.27800781 12.73050781 -22.18101562 12.21101562 -21.05078125 11.67578125 C-19.59609057 10.97189866 -18.14167807 10.26744098 -16.6875 9.5625 C-15.96626953 9.22283203 -15.24503906 8.88316406 -14.50195312 8.53320312 C-9.39949173 6.04021971 -5.35081642 0.39635677 0 0 Z " fill="#A2E85F" transform="translate(366.375,644.75)"/>
<path d="M0 0 C1.9497679 3.8995358 1.00582403 8.82240585 0.9375 13.10546875 C0.99798561 16.87447857 1.38455614 20.29291238 2 24 C-12.88245251 34.48536427 -39.92914431 28.47328291 -57.125 26.5625 C-58.25776367 26.44028076 -59.39052734 26.31806152 -60.55761719 26.19213867 C-61.61368164 26.06814697 -62.66974609 25.94415527 -63.7578125 25.81640625 C-65.16764404 25.65313843 -65.16764404 25.65313843 -66.60595703 25.48657227 C-69 25 -69 25 -72 23 C-71.01942627 22.82460693 -70.03885254 22.64921387 -69.02856445 22.46850586 C-31.93705289 17.49710898 -31.93705289 17.49710898 0 0 Z " fill="#FDFEFB" transform="translate(621,419)"/>
<path d="M0 0 C2.51968566 7.55905699 1.53528887 15.53664246 -1.7421875 22.6875 C-8.08553131 34.34979669 -16.80323786 39.40588626 -29 44 C-32.82276565 38.26585153 -32.43585428 32.68600462 -32 26 C-29.94283055 17.33050016 -22.29631195 12.01850771 -15.078125 7.4609375 C-2.8756844 0 -2.8756844 0 0 0 Z " fill="#C1C180" transform="translate(238,312)"/>
<path d="M0 0 C2.91537501 1.31714458 4.9847013 2.73658126 7.234375 5.00390625 C7.80800781 5.57947266 8.38164062 6.15503906 8.97265625 6.74804688 C9.55917969 7.34681641 10.14570313 7.94558594 10.75 8.5625 C11.35199219 9.16513672 11.95398438 9.76777344 12.57421875 10.38867188 C17 14.85961416 17 14.85961416 17 16 C4.63480695 17.27430796 -7.56146052 18.3487441 -20 18 C-16.51111623 9.78011676 -7.30634975 4.55999133 0 0 Z " fill="#FF74C3" transform="translate(169,126)"/>
<path d="M0 0 C-35.68039598 16.48552193 -35.68039598 16.48552193 -51.625 23.5625 C-52.647146 24.02052002 -53.66929199 24.47854004 -54.72241211 24.95043945 C-55.65190674 25.3599585 -56.58140137 25.76947754 -57.5390625 26.19140625 C-58.33521973 26.54404541 -59.13137695 26.89668457 -59.95166016 27.26000977 C-62 28 -62 28 -65 28 C-50.21463932 9.85598948 -30.75919035 5.60886842 -8.89086914 0.47729492 C-3.13975475 -0.97440665 -3.13975475 -0.97440665 0 0 Z " fill="#A3E862" transform="translate(174,531)"/>
<path d="M0 0 C0.33 0.66 0.66 1.32 1 2 C-2.38320704 10.10332655 -7.66573218 19.34238464 -16 23 C-14.66489612 18.20933315 -12.70858408 14.87252549 -9.6875 10.9375 C-8.54861328 9.43509766 -8.54861328 9.43509766 -7.38671875 7.90234375 C-5.05214932 5.06341563 -2.64122253 2.54772793 0 0 Z " fill="#A4E862" transform="translate(639,395)"/>
<path d="M0 0 C2.67456717 0.37792797 3.80611814 0.79766916 5.703125 2.77734375 C6.21359375 3.49019531 6.7240625 4.20304687 7.25 4.9375 C7.77078125 5.64777344 8.2915625 6.35804688 8.828125 7.08984375 C10 9 10 9 10 11 C6.8510285 9.63088196 4.9521513 8.1247864 2.75 5.5 C2.22921875 4.8915625 1.7084375 4.283125 1.171875 3.65625 C0 2 0 2 0 0 Z " fill="#A5E965" transform="translate(624,442)"/>
<path d="M0 0 C0.99 0.33 1.98 0.66 3 1 C2.67 1.66 2.34 2.32 2 3 C-0.64860427 3.59355614 -3.29197322 3.74209269 -6 4 C-4.03617993 2.49440461 -2.21736634 1.10868317 0 0 Z " fill="#F3FCEB" transform="translate(184,525)"/>
</svg>
